<?xml version="1.0" encoding="UTF-8" standalone="no"?>
<svg
   xmlns:dc="http://purl.org/dc/elements/1.1/"
   xmlns:cc="http://creativecommons.org/ns#"
   xmlns:rdf="http://www.w3.org/1999/02/22-rdf-syntax-ns#"
   xmlns:svg="http://www.w3.org/2000/svg"
   xmlns="http://www.w3.org/2000/svg"
   xmlns:sodipodi="http://sodipodi.sourceforge.net/DTD/sodipodi-0.dtd"
   xmlns:inkscape="http://www.inkscape.org/namespaces/inkscape"
   version="1.1"
   x="0px"
   y="0px"
   viewBox="0 0 100 125"
   style="enable-background:new 0 0 100 100;"
   xml:space="preserve"
   id="svg16"
   sodipodi:docname="chodai-tak.svg"
   inkscape:version="1.0.2-2 (e86c870879, 2021-01-15)"><metadata
     id="metadata22"><rdf:RDF><cc:Work
         rdf:about=""><dc:format>image/svg+xml</dc:format><dc:type
           rdf:resource="http://purl.org/dc/dcmitype/StillImage" /></cc:Work></rdf:RDF></metadata><defs
     id="defs20" /><sodipodi:namedview
     pagecolor="#ffffff"
     bordercolor="#666666"
     borderopacity="1"
     objecttolerance="10"
     gridtolerance="10"
     guidetolerance="10"
     inkscape:pageopacity="0"
     inkscape:pageshadow="2"
     inkscape:window-width="1920"
     inkscape:window-height="1009"
     id="namedview18"
     showgrid="false"
     inkscape:zoom="6.736"
     inkscape:cx="47.355744"
     inkscape:cy="60.785414"
     inkscape:window-x="-8"
     inkscape:window-y="-8"
     inkscape:window-maximized="1"
     inkscape:current-layer="svg16" /><g
     id="g10"
     transform="translate(0.44536817,7.2743464)"><path
       d="m 60.6,47.1 c 1.6,-2.7 0.2,-3.6 -0.5,-4.1 -0.4,-0.2 -0.8,-0.4 -1.2,-0.4 -1.1,0 -1.9,0.9 -2.6,2 l -1.6,2.6 -1,7.6 0.9,3.6 z"
       id="path2" /><path
       d="m 83.6,63.6 c -1,-3.4 -4.6,-5.4 -8.1,-4.3 -3.4,1 -5.4,4.6 -4.3,8.1 0.1,0.2 0.1,0.4 0.2,0.5 -0.5,0.2 -0.9,0.3 -1.5,0.5 0.1,-0.5 0.2,-1 0.2,-1.4 -0.1,-2.4 -1.6,-3.3 -4,-5.1 -2.4,-1.8 -4.4,-3.9 -6.3,-3.8 -2.9,0.1 -2.9,3.6 -2.9,4.1 l -1.8,-1.2 1.1,4.5 v 0.1 0.1 c 0.1,0.8 -0.2,1.6 -0.7,2.2 -0.6,0.6 -1.4,1 -2.2,1 v 0 c -1.5,0 -2.8,-1.1 -3.1,-2.5 L 46.7,56 c -0.6,0.1 -1.2,0.4 -1.5,1 -0.4,0.6 -0.3,1.4 0,1.9 0.1,0.2 0.3,0.4 0.5,0.6 l 0.1,0.1 c -4.3,3.9 -7.3,4.6 -6.6,9.6 0,0.8 0.3,1.5 0.6,2.1 1.1,2 3.7,2.5 5.8,2.4 0,0 0.3,0 0.7,-0.1 0.2,0 0.5,-0.1 0.7,-0.1 2.3,-0.4 6.5,-1.1 8.3,-1.2 1.4,-0.1 4.2,0.3 6.4,0.7 0.7,0.1 1.4,0.3 2.1,0.4 0.6,0.1 1,0.2 1,0.2 0,0 0.1,0 0.1,0 6.9,1 11.1,0.5 14,-0.4 4.3,-1.4 5.7,-6.1 4.7,-9.6 z"
       id="path4" /><path
       d="m 39.1,61.8 8.3,-9.9 -0.2,2.8 3.8,11.4 c 0.2,1 1.2,1.8 2.2,1.8 0,0 0,0 0,0 1.2,0 2.2,-1 2.1,-2.2 L 52.7,54.8 54.4,42.5 c 0,-0.3 0,-0.6 -0.1,-0.8 -0.1,-1.5 -0.8,-2.9 -2.2,-3.9 v 0 c -1,-0.7 -2.1,-1.1 -3.3,-1.1 -1.5,0 -3,0.6 -4,1.9 l -12,14.1 c -0.9,1.2 -1.2,2.7 -0.8,4.1 L 30.4,66 h -8.6 c 0,0 -0.1,0 -0.1,0 -3.4,0 -5.5,1.6 -5.6,3.7 -0.1,2 1.5,3.6 3.8,3.7 l 14,0.3 c 0,0 0,0 0,0 1,0 2,-0.9 2.4,-1.9 L 38.1,66 Z"
       id="path6" /><circle
       cx="58.200001"
       cy="32.5"
       r="6.5"
       id="circle8" /></g></svg>
